# xmcd CD database file
#
# Track frame offsets:
#	150
#	16430
#	43082
#	69743
#	96076
#
# Disc length: 1770 seconds
#
# Revision: 0
# Processed by: cddbd v1.5.2PL0 Copyright (c) Steve Scherf et al.
# Submitted via: CDex 1.70beta3
#
DISCID=3e06e805
DTITLE=Ruby Braff - Ball At Bethlehem
DYEAR=1954
DGENRE=Jazz
TTITLE0=You Can Depend On Me
TTITLE1=Auld Lang Syne
TTITLE2=I'm Gonna Sit Right Down And Write Myself A Letter
TTITLE3=Rosettana
TTITLE4=Sometimes I'm Happy
EXTD=YEAR: 1954
EXTT0=
EXTT1=
EXTT2=
EXTT3=
EXTT4=
PLAYORDER=
